<svg width="132" height="26" viewBox="0 0 132 26" fill="none" xmlns="http://www.w3.org/2000/svg">
<path d="M44.2734 5.17857L46.1693 5.40568V20H44.5005L44.3425 18.667C43.9739 19.1936 43.5394 19.5886 43.0391 19.8519C42.5388 20.1152 41.9924 20.2469 41.3999 20.2469C40.5047 20.2469 39.7641 20.0197 39.1782 19.5655C38.5989 19.1047 38.1677 18.4662 37.8847 17.6499C37.6016 16.8336 37.4601 15.8857 37.4601 14.8061C37.4601 13.7528 37.6214 12.818 37.9439 12.0018C38.2731 11.1789 38.7404 10.5305 39.3461 10.0565C39.9583 9.58254 40.6956 9.34555 41.5579 9.34555C42.1306 9.34555 42.6408 9.44759 43.0885 9.65166C43.5361 9.84915 43.9311 10.1421 44.2734 10.5305V5.17857ZM42.0517 10.8366C41.242 10.8366 40.6133 11.1624 40.1656 11.8141C39.718 12.4659 39.4942 13.4632 39.4942 14.8061C39.4942 15.6948 39.5864 16.4321 39.7707 17.0179C39.955 17.6038 40.2216 18.0383 40.5705 18.3214C40.9194 18.6044 41.3473 18.746 41.8542 18.746C42.4005 18.746 42.8712 18.588 43.2662 18.272C43.6678 17.956 44.0035 17.5907 44.2734 17.1759V12.0906C44.0035 11.6957 43.6776 11.3895 43.2958 11.1723C42.9206 10.9485 42.5059 10.8366 42.0517 10.8366ZM51.4641 15.438C51.5036 16.2017 51.6583 16.827 51.9282 17.3142C52.1981 17.7947 52.5503 18.1502 52.9847 18.3806C53.4192 18.6044 53.8998 18.7163 54.4264 18.7163C54.9465 18.7163 55.4237 18.6373 55.8582 18.4793C56.2927 18.3214 56.7337 18.091 57.1814 17.7881L58.0404 18.9829C57.5533 19.3713 56.9904 19.6807 56.3519 19.9111C55.7134 20.1349 55.0518 20.2469 54.3672 20.2469C53.3271 20.2469 52.4417 20.0197 51.7109 19.5655C50.9868 19.1047 50.4339 18.4662 50.0521 17.6499C49.6768 16.8336 49.4892 15.8857 49.4892 14.8061C49.4892 13.7594 49.6768 12.8246 50.0521 12.0018C50.4339 11.1789 50.9704 10.5305 51.6616 10.0565C52.3528 9.58254 53.1756 9.34555 54.1302 9.34555C55.0254 9.34555 55.7956 9.55291 56.4408 9.96764C57.0925 10.3824 57.5928 10.9748 57.9417 11.745C58.2906 12.5086 58.465 13.4237 58.465 14.4901C58.465 14.6678 58.4617 14.839 58.4551 15.0036C58.4486 15.1681 58.4387 15.313 58.4255 15.438H51.4641ZM54.1499 10.8267C53.4126 10.8267 52.7971 11.09 52.3034 11.6167C51.8163 12.1433 51.5365 12.9563 51.4641 14.0556H56.6383C56.6185 13.0024 56.3881 12.2025 55.9471 11.6562C55.5126 11.1032 54.9135 10.8267 54.1499 10.8267ZM70.6423 9.59241L66.9098 20H64.6979L60.9851 9.59241H62.9995L65.8532 18.351L68.697 9.59241H70.6423Z" fill="#E7ECEF"/>
<path d="M82.9479 16.0009C82.9479 16.8501 82.7241 17.6005 82.2765 18.2522C81.8354 18.9039 81.2001 19.4141 80.3707 19.7828C79.5412 20.1514 78.5439 20.3357 77.3788 20.3357C76.0885 20.3357 75.0056 20.1481 74.1301 19.7729C73.2611 19.3911 72.5403 18.9204 71.9676 18.3609L73.6068 16.544C74.1136 16.985 74.6732 17.3273 75.2854 17.5709C75.8976 17.8079 76.5691 17.9264 77.2998 17.9264C77.754 17.9264 78.1523 17.8606 78.4946 17.7289C78.8369 17.5972 79.1035 17.4063 79.2944 17.1562C79.4853 16.906 79.5807 16.6032 79.5807 16.2477C79.5807 15.912 79.505 15.6289 79.3536 15.3985C79.2022 15.1681 78.9455 14.9608 78.5834 14.7765C78.228 14.5921 77.7309 14.4045 77.0924 14.2136C76.026 13.8845 75.1669 13.5224 74.5152 13.1274C73.8701 12.7325 73.3994 12.2749 73.1032 11.7549C72.8135 11.2348 72.6687 10.6292 72.6687 9.93801C72.6687 9.10198 72.8991 8.38774 73.3599 7.79528C73.8273 7.20281 74.4527 6.75188 75.236 6.44249C76.0194 6.12651 76.8818 5.96852 77.8231 5.96852C78.883 5.96852 79.8177 6.12322 80.6274 6.43261C81.4371 6.73543 82.1382 7.1699 82.7307 7.73603L81.2001 9.49367C80.7393 9.10528 80.2423 8.81892 79.7091 8.6346C79.1759 8.44369 78.6328 8.34824 78.0798 8.34824C77.6717 8.34824 77.3129 8.4009 77.0035 8.50623C76.6941 8.60497 76.4539 8.75309 76.2827 8.95058C76.1116 9.14806 76.026 9.39492 76.026 9.69116C76.026 9.9808 76.1083 10.2244 76.2728 10.4219C76.4374 10.6193 76.7238 10.807 77.1319 10.9847C77.54 11.1559 78.1062 11.3566 78.8303 11.587C79.6927 11.8504 80.4299 12.1663 81.0422 12.535C81.6609 12.897 82.1316 13.3545 82.4542 13.9075C82.7833 14.4605 82.9479 15.1583 82.9479 16.0009ZM94.3945 19.3878C93.9863 19.6511 93.4926 19.8749 92.9133 20.0592C92.334 20.2436 91.6823 20.3357 90.9582 20.3357C89.5889 20.3357 88.5719 19.9868 87.907 19.289C87.2421 18.5847 86.9097 17.6302 86.9097 16.4255V11.666H84.7077V9.51342H86.9097V7.24231L90.03 6.86709V9.51342H93.407L93.1009 11.666H90.03V16.4255C90.03 16.9455 90.1485 17.3175 90.3855 17.5413C90.6225 17.7651 91.001 17.877 91.521 17.877C91.8897 17.877 92.2254 17.8342 92.5282 17.7486C92.8376 17.6565 93.1141 17.5413 93.3577 17.403L94.3945 19.3878ZM101.338 9.16781C102.418 9.16781 103.336 9.39822 104.093 9.85902C104.85 10.3198 105.43 10.9682 105.831 11.8043C106.233 12.6337 106.433 13.608 106.433 14.7271C106.433 15.8923 106.229 16.8962 105.821 17.7388C105.42 18.5748 104.84 19.2166 104.083 19.6643C103.326 20.1119 102.411 20.3357 101.338 20.3357C100.272 20.3357 99.3568 20.1152 98.5932 19.6741C97.8362 19.2331 97.2536 18.5945 96.8455 17.7585C96.4439 16.9225 96.2431 15.9186 96.2431 14.7468C96.2431 13.6343 96.4439 12.6601 96.8455 11.824C97.2536 10.988 97.8362 10.3363 98.5932 9.86889C99.3568 9.40151 100.272 9.16781 101.338 9.16781ZM101.338 11.4685C100.7 11.4685 100.226 11.7319 99.9164 12.2585C99.6136 12.7785 99.4622 13.608 99.4622 14.7468C99.4622 15.9054 99.6136 16.7447 99.9164 17.2648C100.226 17.7848 100.7 18.0449 101.338 18.0449C101.977 18.0449 102.448 17.7848 102.75 17.2648C103.06 16.7447 103.214 15.8988 103.214 14.7271C103.214 13.5948 103.06 12.7687 102.75 12.2486C102.448 11.7286 101.977 11.4685 101.338 11.4685ZM108.736 20V17.9066H110.119V11.587H108.736V9.51342H112.499L113.071 11.8734C113.446 10.9715 113.924 10.3001 114.503 9.85902C115.089 9.41796 115.803 9.19744 116.646 9.19744C117.001 9.19744 117.317 9.22706 117.594 9.28631C117.87 9.33897 118.13 9.41467 118.374 9.51342L117.426 12.0906C117.235 12.038 117.044 11.9985 116.853 11.9721C116.662 11.9458 116.452 11.9326 116.221 11.9326C115.537 11.9326 114.934 12.2124 114.414 12.772C113.901 13.3315 113.509 14.0425 113.239 14.9048V17.9066H115.313V20H108.736ZM115.836 13.8976V10.8366L116.3 9.51342H118.374L117.791 13.8976H115.836ZM130.393 9.51342L126.898 20C126.588 20.9282 126.177 21.705 125.663 22.3304C125.156 22.9623 124.521 23.4494 123.757 23.7918C123 24.1341 122.089 24.3348 121.022 24.3941L120.667 22.1921C121.358 22.1065 121.914 21.9782 122.336 21.807C122.763 21.6359 123.106 21.4022 123.362 21.1059C123.626 20.8163 123.853 20.4476 124.044 20H122.977L119.65 9.51342H122.948L124.982 18.0054L127.194 9.51342H130.393Z" fill="url(#paint0_linear_88_1312)"/>
<path d="M9.45049 3.41106V5.58342C9.04893 5.58342 8.70333 5.61962 8.41368 5.69203C8.13062 5.75786 7.91667 5.88294 7.77185 6.06726C7.63361 6.245 7.58094 6.50173 7.61386 6.83746L7.91996 9.7504C7.99896 10.4877 7.91667 11.0834 7.6731 11.5377C7.43612 11.9919 7.07077 12.3408 6.57705 12.5843C6.08991 12.8213 5.51391 12.9892 4.84903 13.0879C5.5534 13.1933 6.14916 13.3644 6.63629 13.6014C7.12343 13.8384 7.47891 14.1807 7.70273 14.6283C7.92655 15.076 7.99896 15.675 7.91996 16.4255L7.61386 19.3384C7.58094 19.6676 7.63361 19.9243 7.77185 20.1086C7.91667 20.2929 8.13391 20.418 8.42356 20.4838C8.7132 20.5563 9.05552 20.5925 9.45049 20.5925V22.7648C8.54205 22.7648 7.77185 22.699 7.13989 22.5673C6.50793 22.4357 6.00104 22.225 5.61923 21.9354C5.24401 21.6523 4.98398 21.2771 4.83916 20.8097C4.70092 20.3489 4.66471 19.7861 4.73054 19.1212L5.02677 16.2971C5.07944 15.7968 4.99386 15.4051 4.77004 15.1221C4.5528 14.839 4.23024 14.6415 3.80235 14.5296C3.37446 14.4111 2.88074 14.3519 2.32119 14.3519V11.824C2.87416 11.824 3.36459 11.7681 3.79248 11.6562C4.22036 11.5377 4.54622 11.3369 4.77004 11.0538C4.99386 10.7708 5.07944 10.3791 5.02677 9.87877L4.73054 7.07445C4.65813 6.39641 4.69104 5.82369 4.82928 5.35631C4.97411 4.88892 5.23413 4.51369 5.60936 4.23063C5.99117 3.94098 6.49805 3.73362 7.13001 3.60854C7.76856 3.47688 8.54205 3.41106 9.45049 3.41106ZM26.5572 3.41106C27.4657 3.41106 28.2359 3.47688 28.8678 3.60854C29.4998 3.7402 30.0034 3.95085 30.3786 4.2405C30.7604 4.52357 31.0237 4.89879 31.1686 5.36618C31.3134 5.82698 31.3496 6.38982 31.2772 7.0547L30.9809 9.87877C30.9283 10.3791 31.0139 10.7708 31.2377 11.0538C31.4615 11.3369 31.7841 11.5377 32.2054 11.6562C32.6333 11.7681 33.127 11.824 33.6865 11.824V14.3519C33.1336 14.3519 32.6431 14.4111 32.2152 14.5296C31.7873 14.6415 31.4615 14.839 31.2377 15.1221C31.0139 15.4051 30.9283 15.7968 30.9809 16.2971L31.2772 19.1014C31.3496 19.7795 31.3134 20.3522 31.1686 20.8196C31.0303 21.287 30.7703 21.6622 30.3885 21.9453C30.0133 22.2349 29.5064 22.4423 28.8678 22.5673C28.2359 22.699 27.4657 22.7648 26.5572 22.7648V20.5925C26.9588 20.5925 27.3011 20.5563 27.5842 20.4838C27.8738 20.418 28.0877 20.2929 28.226 20.1086C28.3708 19.9243 28.4268 19.6676 28.3939 19.3384L28.0877 16.4255C28.0088 15.6816 28.0877 15.0859 28.3247 14.6382C28.5683 14.184 28.9369 13.8384 29.4307 13.6014C29.9244 13.3578 30.5037 13.1867 31.1686 13.0879C30.4642 12.9826 29.8651 12.8115 29.3714 12.5745C28.8843 12.3375 28.5288 11.9952 28.305 11.5475C28.0812 11.0933 28.0088 10.4943 28.0877 9.7504L28.3939 6.83746C28.4268 6.50173 28.3708 6.245 28.226 6.06726C28.0877 5.88294 27.8738 5.75786 27.5842 5.69203C27.3011 5.61962 26.9588 5.58342 26.5572 5.58342V3.41106Z" fill="#2CA58D"/>
<circle cx="18.1429" cy="11.1429" r="8.14286" fill="#E7ECEF"/>
<circle cx="18.1429" cy="11.1429" r="5.42857" fill="#2CA58D"/>
<circle cx="18.1429" cy="11.1429" r="1.80952" fill="#3BCBAE"/>
<path d="M19.5116 20.7532L19.9757 16.1117C20.0843 15.0257 19.2315 14.0833 18.1401 14.0833C17.0507 14.0833 16.1985 15.0224 16.304 16.1068L16.7557 20.7495C16.8248 21.4589 17.4211 22 18.1339 22C18.8452 22 19.4408 21.461 19.5116 20.7532Z" fill="#3BCBAE"/>
<defs>
<linearGradient id="paint0_linear_88_1312" x1="83.706" y1="0" x2="83.706" y2="26" gradientUnits="userSpaceOnUse">
<stop stop-color="#2CA58D"/>
<stop offset="0.958333" stop-color="#2CA58D" stop-opacity="0"/>
</linearGradient>
</defs>
</svg>
